<svg xmlns="http://www.w3.org/2000/svg" viewBox="0 0 642.643 158" width="642.643" height="158" role="img" aria-label="Anduril lockup, italic wordmark (mono-pine)"><title>Anduril lockup, italic wordmark (mono-pine)</title><g transform="translate(4 4.00) scale(1.500)"><path d="M66.97 66.97 L51.27 55.80 L50 50 L55.80 51.27 Z" fill="#143D31"/><path d="M33.03 66.97 L44.20 51.27 L50 50 L48.73 55.80 Z" fill="#143D31"/><path d="M33.03 33.03 L48.73 44.20 L50 50 L44.20 48.73 Z" fill="#143D31"/><path d="M66.97 33.03 L55.80 48.73 L50 50 L51.27 44.20 Z" fill="#143D31"/><path d="M50.00 12.00 L55.60 43.00 L50 50 L44.40 43.00 Z" fill="#143D31"/><path d="M88.00 50.00 L57.00 55.60 L50 50 L57.00 44.40 Z" fill="#143D31"/><path d="M50.00 88.00 L44.40 57.00 L50 50 L55.60 57.00 Z" fill="#143D31"/><path d="M1.00 50.00 L43.00 43.80 L50 50 L43.00 56.20 Z" fill="#143D31"/></g><path transform="translate(198.00 129.00) scale(1.0000)" d="M20.57 -17.29Q17.57 -12.43 18.54 -9.39Q19.5 -6.36 23.14 -5.43L25.93 -4.79Q26.93 -4.36 27.36 -3.82Q27.79 -3.29 27.79 -2.57Q27.79 -1.36 26.96 -0.68Q26.14 0 24.71 0H2.93Q1.43 0 0.71 -0.61Q0 -1.21 0 -2.29Q0.07 -3.36 0.75 -4.14Q1.43 -4.93 3.21 -5.79Q6 -6.64 9 -9.86Q12 -13.07 15.29 -18.29L54.21 -80.36Q60.93 -91.29 68.21 -96.25Q75.5 -101.21 83 -101.21Q85.21 -101.21 86.14 -100.5Q87.07 -99.79 87.07 -98.64Q87.07 -97.86 86.61 -97.14Q86.14 -96.43 85.07 -95.93Q82.21 -95.29 80.5 -93.11Q78.79 -90.93 78.57 -86.71Q78.5 -84.36 78.32 -79.68Q78.14 -75 77.89 -68.82Q77.64 -62.64 77.36 -55.71Q77.07 -48.79 76.79 -41.93Q76.5 -35.07 76.25 -29Q76 -22.93 75.86 -18.43Q75.71 -13.93 75.71 -11.86Q75.71 -9.86 76.11 -8.61Q76.5 -7.36 77.79 -6.5Q79.07 -5.64 81.71 -4.86Q83.36 -4.07 83.36 -2.57Q83.29 -1.43 82.54 -0.71Q81.79 0 80.36 0H50.14Q48.93 0 48.36 -0.68Q47.79 -1.36 47.79 -2.29Q47.79 -3.29 48.36 -3.93Q48.93 -4.57 50 -5L55.86 -5.93Q57.64 -6.43 58.46 -7.89Q59.29 -9.36 59.36 -11.64Q59.5 -14.07 59.71 -18.71Q59.93 -23.36 60.25 -29.46Q60.57 -35.57 60.93 -42.43Q61.29 -49.29 61.61 -56.18Q61.93 -63.07 62.25 -69.32Q62.57 -75.57 62.75 -80.54Q62.93 -85.5 63 -88.36L65.71 -87.43Q64.86 -86.79 63.79 -85.64Q62.71 -84.5 61.32 -82.5Q59.93 -80.5 58.07 -77.36ZM26.5 -31.57 27.79 -36.07H65.43L65.07 -31.57ZM94.93 -48.43Q93.93 -48.57 93.86 -49.64Q93.79 -50.71 94.57 -52.07Q98.07 -57.43 103.14 -60.54Q108.21 -63.64 113.43 -63.64Q117.21 -63.64 119.18 -61.93Q121.14 -60.21 121.14 -56.86Q121.14 -54.71 120.29 -51.82Q119.43 -48.93 118.11 -45.46Q116.79 -42 115.36 -38.18Q113.93 -34.36 112.79 -30.29L111.36 -30.64Q115.14 -39.86 119.64 -46.21Q124.14 -52.57 128.82 -56.39Q133.5 -60.21 138.04 -61.93Q142.57 -63.64 146.43 -63.64Q151.21 -63.64 153.32 -61.25Q155.43 -58.86 155.36 -54.57Q155.29 -50.29 153.36 -44.57L144.71 -17.71Q142.93 -12.29 143.29 -10.21Q143.64 -8.14 145.5 -8.14Q146.86 -8.14 148.39 -9.11Q149.93 -10.07 152.14 -12.79Q152.71 -13.36 153.07 -13.54Q153.43 -13.71 153.79 -13.57Q154.57 -13.5 154.79 -12.46Q155 -11.43 154.07 -9.71Q151.07 -4.57 146.64 -1.68Q142.21 1.21 136.36 1.21Q132.21 1.21 130.14 -0.61Q128.07 -2.43 127.93 -5.86Q127.79 -9.29 129.29 -14.07L138.29 -42.21Q140.29 -48.5 139.54 -51.04Q138.79 -53.57 135.64 -53.57Q133.29 -53.57 130.29 -51.86Q127.29 -50.14 124 -46.57Q120.71 -43 117.57 -37.57Q114.43 -32.14 111.93 -24.71Q110.57 -20.71 109.82 -18.07Q109.07 -15.43 108.79 -13.71Q108.5 -12 108.5 -10.86Q108.5 -9.14 109 -7.89Q109.5 -6.64 109.5 -5Q109.5 -2.14 106.36 -0.46Q103.21 1.21 97.57 1.21Q92.71 1.21 91.75 -1.46Q90.79 -4.14 92.93 -9.79L104.64 -44Q106.64 -49.64 106.39 -51.82Q106.14 -54 104.07 -54Q102.64 -54 100.96 -52.96Q99.29 -51.93 96.79 -49.21Q96.29 -48.64 95.82 -48.5Q95.36 -48.36 94.93 -48.43ZM215.93 -53.43 208.21 -52.36Q208.07 -55.21 206.75 -56.93Q205.43 -58.64 202 -58.64Q198.57 -58.64 195 -56.36Q191.43 -54.07 188.18 -50.14Q184.93 -46.21 182.21 -41.18Q179.5 -36.14 177.68 -30.61Q175.86 -25.07 175.21 -19.64Q174.29 -12.86 175.82 -9.64Q177.36 -6.43 180.29 -6.43Q182.86 -6.43 186.11 -8.96Q189.36 -11.5 192.71 -16.04Q196.07 -20.57 199.11 -26.71Q202.14 -32.86 204.21 -40.07L217.21 -85.86Q219.86 -95.21 225.11 -99.64Q230.36 -104.07 238.57 -104.07Q243.36 -104.07 245.79 -102.04Q248.21 -100 248.21 -97.36Q248.21 -94.5 246.54 -92.75Q244.86 -91 241.86 -91Q240.14 -91 238.57 -91.61Q237 -92.21 235.54 -93.04Q234.07 -93.86 232.68 -94.5Q231.29 -95.14 229.93 -95.14Q227.86 -95.14 226.29 -93.57Q224.71 -92 224.36 -89.36Q224.14 -87.79 224.64 -86.36Q225.14 -84.93 225.89 -83.36Q226.64 -81.79 227.29 -79.86Q227.93 -77.93 228 -75.43Q228.07 -72.93 227.14 -69.64L212.29 -18.07Q210.79 -12.71 211 -10.39Q211.21 -8.07 213.36 -8.07Q214.71 -8.07 216.25 -9.07Q217.79 -10.07 219.93 -12.79Q220.36 -13.43 220.75 -13.57Q221.14 -13.71 221.5 -13.64Q222.21 -13.5 222.39 -12.64Q222.57 -11.79 221.93 -10.07Q220.14 -6.64 217.46 -4.11Q214.79 -1.57 211.57 -0.18Q208.36 1.21 204.86 1.21Q200.43 1.21 198.36 -0.93Q196.29 -3.07 196.29 -7Q196.29 -8.93 196.68 -11.5Q197.07 -14.07 198.14 -18.18Q199.21 -22.29 201.14 -28.64L202.86 -27.29Q198.5 -17.71 193.61 -11.39Q188.71 -5.07 183.5 -1.93Q178.29 1.21 172.93 1.21Q168.57 1.21 165.43 -1Q162.29 -3.21 160.86 -7.75Q159.43 -12.29 160.14 -19.14Q160.86 -27.14 164.46 -35Q168.07 -42.86 173.89 -49.36Q179.71 -55.86 187.07 -59.75Q194.43 -63.64 202.64 -63.64Q207.29 -63.64 210.18 -62.25Q213.07 -60.86 214.46 -58.57Q215.86 -56.29 215.93 -53.43ZM289.5 -13.93Q290.43 -13.86 290.57 -12.75Q290.71 -11.64 289.86 -10.36Q286.43 -5.07 281.39 -1.93Q276.36 1.21 271 1.21Q267.21 1.21 265.25 -0.46Q263.29 -2.14 263.29 -5.57Q263.29 -7.71 264.14 -10.61Q265 -13.5 266.32 -16.93Q267.64 -20.36 269.07 -24.21Q270.5 -28.07 271.64 -32.07L273.07 -31.79Q269.29 -22.5 264.82 -16.18Q260.36 -9.86 255.71 -6.04Q251.07 -2.21 246.57 -0.5Q242.07 1.21 238.21 1.21Q233.5 1.21 231.36 -1.14Q229.21 -3.5 229.32 -7.82Q229.43 -12.14 231.29 -17.79L240 -44.64Q241.79 -50.07 241.43 -52.18Q241.07 -54.29 239.14 -54.29Q237.79 -54.29 236.21 -53.32Q234.64 -52.36 232.43 -49.79Q231.86 -49.07 231.46 -48.86Q231.07 -48.64 230.64 -48.79Q229.93 -48.93 229.71 -49.96Q229.5 -51 230.43 -52.79Q233.14 -57.64 237.79 -60.64Q242.43 -63.64 248.29 -63.64Q252.5 -63.64 254.57 -61.82Q256.64 -60 256.79 -56.57Q256.93 -53.14 255.43 -48.36L246.43 -20.21Q244.43 -13.86 245.18 -11.32Q245.93 -8.79 249.07 -8.79Q251.36 -8.79 254.32 -10.5Q257.29 -12.21 260.54 -15.79Q263.79 -19.36 266.89 -24.79Q270 -30.21 272.5 -37.64Q273.86 -41.64 274.61 -44.29Q275.36 -46.93 275.64 -48.64Q275.93 -50.36 275.93 -51.57Q275.93 -53.21 275.43 -54.46Q274.93 -55.71 274.93 -57.36Q274.93 -60.21 278.07 -61.93Q281.21 -63.64 286.86 -63.64Q291.71 -63.64 292.68 -60.96Q293.64 -58.29 291.5 -52.57L279.79 -18.36Q277.79 -12.71 278.07 -10.54Q278.36 -8.36 280.36 -8.36Q281.71 -8.36 283.39 -9.36Q285.07 -10.36 287.71 -13.21Q288.21 -13.71 288.68 -13.89Q289.14 -14.07 289.5 -13.93ZM300.64 -48.43Q299.71 -48.5 299.57 -49.5Q299.43 -50.5 300.29 -51.86Q302.57 -55.43 305.57 -58.07Q308.57 -60.71 312 -62.18Q315.43 -63.64 318.86 -63.64Q322.43 -63.64 324.25 -61.82Q326.07 -60 326.07 -56.79Q326.07 -54.43 325.39 -51.57Q324.71 -48.71 323.43 -45Q322.14 -41.29 320.46 -36.39Q318.79 -31.5 316.86 -25L315.43 -25.21Q318.21 -34.43 321.64 -41.57Q325.07 -48.71 328.93 -53.61Q332.79 -58.5 336.82 -61.07Q340.86 -63.64 344.79 -63.64Q349.07 -63.64 351.25 -60.68Q353.43 -57.71 353.14 -52.93Q353 -49.43 351.61 -46.89Q350.21 -44.36 348.14 -42.93Q346.07 -41.5 343.64 -41.5Q341 -41.5 339.71 -42.68Q338.43 -43.86 338.43 -45.93Q338.43 -47.43 338.82 -48.82Q339.21 -50.21 339.21 -51.71Q339.21 -53 338.68 -53.64Q338.14 -54.29 336.93 -54.29Q334.43 -54.29 331.18 -51.04Q327.93 -47.79 324.5 -41.29Q321.07 -34.79 318.07 -25.14Q316.5 -20.14 315.79 -17.07Q315.07 -14 315.07 -11.71Q315.07 -10 315.68 -8.96Q316.29 -7.93 316.89 -7.18Q317.5 -6.43 317.5 -5.5Q317.5 -3.86 315.68 -2.29Q313.86 -0.71 310.71 0.25Q307.57 1.21 303.64 1.21Q300.43 1.21 298.96 -0.11Q297.5 -1.43 297.61 -4.07Q297.71 -6.71 299.14 -10.71L310.21 -44Q312.14 -49.71 311.89 -51.86Q311.64 -54 309.64 -54Q308.36 -54 306.71 -53Q305.07 -52 302.43 -49.07Q301.93 -48.64 301.5 -48.46Q301.07 -48.29 300.64 -48.43ZM371.14 -17.5Q369.43 -12.43 369.75 -10.29Q370.07 -8.14 372 -8.14Q373.36 -8.14 374.96 -9.11Q376.57 -10.07 378.79 -12.71Q379.29 -13.29 379.68 -13.5Q380.07 -13.71 380.43 -13.57Q381.21 -13.5 381.39 -12.43Q381.57 -11.36 380.64 -9.57Q377.79 -4.57 373.21 -1.68Q368.64 1.21 362.86 1.21Q358.64 1.21 356.54 -0.64Q354.43 -2.5 354.25 -5.96Q354.07 -9.43 355.71 -14.21L366 -44.14Q367.79 -49.21 367.5 -51.46Q367.21 -53.71 365.21 -53.71Q363.79 -53.71 362.21 -52.71Q360.64 -51.71 358.14 -48.86Q357.71 -48.43 357.32 -48.25Q356.93 -48.07 356.5 -48.21Q355.71 -48.29 355.54 -49.29Q355.36 -50.29 356.21 -51.93Q359.5 -57.29 364.21 -60.46Q368.93 -63.64 374.21 -63.64Q378.14 -63.64 380.32 -61.71Q382.5 -59.79 382.79 -56.25Q383.07 -52.71 381.36 -47.71ZM378.5 -73.71Q375.07 -73.71 373.18 -75.75Q371.29 -77.79 371.29 -80.93Q371.29 -83.64 372.71 -86.46Q374.14 -89.29 376.64 -91.21Q379.14 -93.14 382.43 -93.14Q386.29 -93.14 388.18 -91.11Q390.07 -89.07 390.07 -86Q390.07 -83.07 388.64 -80.21Q387.21 -77.36 384.64 -75.54Q382.07 -73.71 378.5 -73.71ZM431.21 -103.86Q436 -103.86 438.32 -101.86Q440.64 -99.86 440.64 -97.21Q440.64 -94.36 438.75 -92.68Q436.86 -91 434.07 -91Q432.43 -91 430.86 -91.57Q429.29 -92.14 427.82 -92.93Q426.36 -93.71 424.93 -94.29Q423.5 -94.86 422.21 -94.86Q420.79 -94.86 419.54 -94.04Q418.29 -93.21 417.5 -91.89Q416.71 -90.57 416.43 -88.93Q416.21 -87.36 416.75 -85.86Q417.29 -84.36 418.07 -82.75Q418.86 -81.14 419.5 -79.11Q420.14 -77.07 420.21 -74.5Q420.29 -71.93 419.29 -68.5L404.43 -17.86Q402.71 -12.07 403.14 -10.11Q403.57 -8.14 405.36 -8.14Q406.64 -8.14 408.21 -9.11Q409.79 -10.07 412 -12.71Q412.57 -13.36 412.96 -13.57Q413.36 -13.79 413.79 -13.64Q414.57 -13.57 414.79 -12.54Q415 -11.5 414.14 -9.79Q412.14 -6.29 409.43 -3.82Q406.71 -1.36 403.36 -0.07Q400 1.21 396.07 1.21Q392.07 1.21 390.04 -0.54Q388 -2.29 387.75 -5.71Q387.5 -9.14 388.93 -14.21L409.64 -85.43Q412.36 -94.93 417.89 -99.39Q423.43 -103.86 431.21 -103.86Z" fill="#143D31"/></svg>
