<svg xmlns="http://www.w3.org/2000/svg" viewBox="0 0 698.806 202" width="698.806" height="202" role="img" aria-label="Anduril lockup with descriptor (ink-on-ivory)"><title>Anduril lockup with descriptor (ink-on-ivory)</title><g transform="translate(4 4.00) scale(1.500)"><path d="M66.97 66.97 L51.27 55.80 L50 50 L55.80 51.27 Z" fill="#143D31"/><path d="M33.03 66.97 L44.20 51.27 L50 50 L48.73 55.80 Z" fill="#143D31"/><path d="M33.03 33.03 L48.73 44.20 L50 50 L44.20 48.73 Z" fill="#143D31"/><path d="M66.97 33.03 L55.80 48.73 L50 50 L51.27 44.20 Z" fill="#143D31"/><path d="M50.00 12.00 L55.60 43.00 L50 50 L44.40 43.00 Z" fill="#143D31"/><path d="M88.00 50.00 L57.00 55.60 L50 50 L57.00 44.40 Z" fill="#143D31"/><path d="M50.00 88.00 L44.40 57.00 L50 50 L55.60 57.00 Z" fill="#143D31"/><path d="M1.00 50.00 L43.00 43.80 L50 50 L43.00 56.20 Z" fill="#C9A14B"/></g><path transform="translate(198.00 129.00) scale(1.0000)" d="M20.21 -39.5H58.36L58.57 -36H19.86ZM24.79 -1.57Q24.79 -0.86 24.36 -0.43Q23.93 0 23 0H1.79Q0.93 0 0.46 -0.43Q0 -0.86 0 -1.57Q0 -2.21 0.36 -2.57Q0.71 -2.93 1.36 -3.21L4.14 -4.14Q6.14 -4.86 7.82 -6.82Q9.5 -8.79 10.86 -13.36L34 -90.29Q34.79 -92.86 34.11 -94.25Q33.43 -95.64 31.29 -96.43Q30.14 -97 29.61 -97.39Q29.07 -97.79 29.07 -98.43Q29.07 -99.21 29.54 -99.61Q30 -100 30.93 -100H57.93Q58.86 -100 59.32 -99.61Q59.79 -99.21 59.79 -98.43Q59.79 -97.79 59.29 -97.36Q58.79 -96.93 57.64 -96.5Q55.79 -96.07 55.39 -95.32Q55 -94.57 55.64 -92.57L82.43 -8.57Q83.21 -6.07 84.43 -4.96Q85.64 -3.86 87.64 -3.43Q88.5 -3.07 88.86 -2.64Q89.21 -2.21 89.21 -1.57Q89.21 -0.93 88.75 -0.46Q88.29 0 87.36 0H59Q58.07 0 57.61 -0.43Q57.14 -0.86 57.14 -1.57Q57.14 -2.21 57.57 -2.57Q58 -2.93 58.71 -3.21L62.57 -3.86Q64.14 -4.21 64.54 -5.29Q64.93 -6.36 64.21 -8.64L37.57 -93.07L39.29 -95.29L14.71 -13.64Q13.86 -10.86 14.32 -8.93Q14.79 -7 16.32 -5.82Q17.86 -4.64 20.21 -3.93L23.29 -3.21Q24.07 -2.93 24.43 -2.57Q24.79 -2.21 24.79 -1.57ZM113.5 -61.64V-6.64Q113.5 -5.21 113.93 -4.46Q114.36 -3.71 115.43 -3.43L119.07 -2.79Q120.21 -2.36 120.21 -1.36Q120.21 0 118.79 0H93Q92.29 0 91.89 -0.36Q91.5 -0.71 91.5 -1.36Q91.5 -1.86 91.79 -2.21Q92.07 -2.57 92.71 -2.86L96.43 -3.57Q97.57 -3.79 98 -4.5Q98.43 -5.21 98.43 -6.57V-53.14Q98.43 -54.14 98.14 -54.57Q97.86 -55 97.07 -55.07L92.5 -55.14Q91.86 -55.36 91.57 -55.68Q91.29 -56 91.29 -56.5Q91.29 -57.07 91.64 -57.43Q92 -57.79 92.86 -58.07L108.93 -62.86Q110.14 -63.21 110.71 -63.36Q111.29 -63.5 111.86 -63.5Q112.64 -63.5 113.07 -63Q113.5 -62.5 113.5 -61.64ZM112.07 -47.5 110.64 -49.14 113.29 -51.64Q120.21 -58.07 125.39 -60.93Q130.57 -63.79 135.36 -63.79Q142.14 -63.79 145.82 -59.54Q149.5 -55.29 150.64 -46.79L155.79 -6.93Q156 -5.43 156.46 -4.57Q156.93 -3.71 158.14 -3.43L161.43 -2.86Q162 -2.57 162.32 -2.21Q162.64 -1.86 162.64 -1.36Q162.64 -0.71 162.21 -0.36Q161.79 0 161.07 0H134.93Q133.36 0 133.36 -1.36Q133.36 -2.29 134.57 -2.79L138.36 -3.43Q139.64 -3.71 140.18 -4.57Q140.71 -5.43 140.5 -6.86L135.86 -44Q135 -50 132.82 -52.86Q130.64 -55.71 126.43 -55.71Q123.57 -55.71 120.68 -54.25Q117.79 -52.79 114.5 -49.71ZM210.57 -9.64 210.36 -10.07V-95.21Q210.36 -96.21 210.07 -96.64Q209.79 -97.07 209 -97.14L204.43 -97.21Q203.79 -97.43 203.5 -97.75Q203.21 -98.07 203.21 -98.57Q203.21 -99.14 203.57 -99.5Q203.93 -99.86 204.79 -100.14L220.86 -104.93Q222.07 -105.29 222.64 -105.43Q223.21 -105.57 223.79 -105.57Q224.57 -105.57 225 -105.07Q225.43 -104.57 225.43 -103.71V-6.64Q225.43 -5.21 225.89 -4.5Q226.36 -3.79 227.43 -3.57L231 -2.86Q231.71 -2.64 232 -2.29Q232.29 -1.93 232.29 -1.36Q232.29 -0.71 231.89 -0.36Q231.5 0 230.71 0H214.21Q212.57 0 211.57 -1Q210.57 -2 210.57 -3.86ZM164.86 -29.57Q164.86 -40.29 168.82 -47.96Q172.79 -55.64 179.43 -59.71Q186.07 -63.79 194.21 -63.79Q201.57 -63.79 206.64 -60.61Q211.71 -57.43 214.79 -52L212.71 -49.71Q210.29 -54.5 206.36 -57.11Q202.43 -59.71 197.29 -59.71Q192.57 -59.71 188.68 -56.68Q184.79 -53.64 182.5 -47.32Q180.21 -41 180.21 -31.07Q180.21 -22 182.29 -15.96Q184.36 -9.93 187.96 -6.93Q191.57 -3.93 196.29 -3.93Q200.43 -3.93 204.5 -6.32Q208.57 -8.71 212.14 -13.71L213.43 -11.79Q208.21 -4.93 202.75 -1.75Q197.29 1.43 190.71 1.43Q183.21 1.43 177.36 -2.32Q171.5 -6.07 168.18 -13.04Q164.86 -20 164.86 -29.57ZM281.64 -3.93V-11.57L281.5 -12V-53.07Q281.5 -54 281.21 -54.43Q280.93 -54.86 280.14 -55L275.57 -55.07Q274.93 -55.21 274.64 -55.57Q274.36 -55.93 274.36 -56.36Q274.36 -56.93 274.71 -57.32Q275.07 -57.71 275.93 -58L292 -62.71Q293.21 -63.14 293.79 -63.29Q294.36 -63.43 294.93 -63.43Q295.71 -63.43 296.14 -62.89Q296.57 -62.36 296.57 -61.57V-6.64Q296.57 -5.21 297.04 -4.5Q297.5 -3.79 298.57 -3.57L302.21 -2.86Q302.86 -2.64 303.14 -2.29Q303.43 -1.93 303.43 -1.36Q303.43 -0.71 303.04 -0.36Q302.64 0 301.86 0H285.36Q283.57 0 282.61 -1.04Q281.64 -2.07 281.64 -3.93ZM241.5 -17.29V-53.07Q241.5 -54 241.18 -54.43Q240.86 -54.86 240.07 -55L235.5 -55.07Q234.86 -55.21 234.57 -55.57Q234.29 -55.93 234.29 -56.36Q234.29 -56.93 234.64 -57.32Q235 -57.71 235.86 -58L252 -62.71Q253.21 -63.14 253.79 -63.29Q254.36 -63.43 254.86 -63.43Q255.71 -63.43 256.11 -62.89Q256.5 -62.36 256.5 -61.57V-19.5Q256.5 -13 259.5 -9.89Q262.5 -6.79 267.36 -6.79Q270.57 -6.79 273.93 -8.25Q277.29 -9.71 280.71 -12.93L283.14 -15.07L284.57 -13.36L282 -10.93Q274.86 -4.21 269.04 -1.46Q263.21 1.29 258 1.29Q250.79 1.29 246.14 -3.32Q241.5 -7.93 241.5 -17.29ZM327.93 -34.93Q327.93 -44.5 330.57 -50.93Q333.21 -57.36 337.43 -60.57Q341.64 -63.79 346.36 -63.79Q351.64 -63.79 354.54 -60.54Q357.43 -57.29 357.43 -51.29Q357.43 -46.43 355.25 -44.04Q353.07 -41.64 349.86 -41.64Q346.64 -41.64 345.04 -43.36Q343.43 -45.07 343.29 -48.5V-50.71Q343.21 -53 342.29 -54.11Q341.36 -55.21 339.21 -55.21Q336.71 -55.21 334.39 -52.93Q332.07 -50.64 330.64 -46.11Q329.21 -41.57 329.21 -34.79ZM328.93 -61.21 329.21 -40V-6.86Q329.21 -5.57 329.75 -4.79Q330.29 -4 331.5 -3.79L337.86 -2.86Q338.71 -2.71 339.04 -2.32Q339.36 -1.93 339.36 -1.36Q339.36 -0.79 338.93 -0.39Q338.5 0 337.71 0H308.86Q308.07 0 307.61 -0.39Q307.14 -0.79 307.14 -1.36Q307.14 -1.93 307.5 -2.29Q307.86 -2.64 308.57 -2.93L312.14 -3.57Q313.21 -3.86 313.68 -4.5Q314.14 -5.14 314.14 -6.43V-53.36Q314.14 -54.29 313.86 -54.75Q313.57 -55.21 312.79 -55.36L308.07 -55.43Q307.5 -55.57 307.21 -55.93Q306.93 -56.29 306.93 -56.71Q306.93 -57.29 307.32 -57.68Q307.71 -58.07 308.5 -58.36L324.79 -62.64Q325.79 -63 326.39 -63.11Q327 -63.21 327.43 -63.21Q328.14 -63.21 328.5 -62.75Q328.86 -62.29 328.93 -61.21ZM382.5 -61.64V-6.64Q382.5 -5.21 382.96 -4.54Q383.43 -3.86 384.5 -3.57L388.14 -2.86Q388.79 -2.64 389.11 -2.29Q389.43 -1.93 389.43 -1.36Q389.43 -0.71 389 -0.36Q388.57 0 387.79 0H362.07Q361.36 0 360.93 -0.36Q360.5 -0.71 360.5 -1.36Q360.5 -1.86 360.79 -2.21Q361.07 -2.57 361.71 -2.86L365.5 -3.57Q366.57 -3.86 367.04 -4.54Q367.5 -5.21 367.5 -6.57V-53.14Q367.5 -54.14 367.18 -54.57Q366.86 -55 366.14 -55.07L361.5 -55.14Q360.93 -55.36 360.64 -55.68Q360.36 -56 360.36 -56.5Q360.36 -57.07 360.71 -57.43Q361.07 -57.79 361.86 -58.07L378 -62.86Q379.21 -63.21 379.79 -63.36Q380.36 -63.5 380.86 -63.5Q381.71 -63.5 382.11 -63Q382.5 -62.5 382.5 -61.64ZM374.5 -73.93Q370.29 -73.93 367.68 -76.61Q365.07 -79.29 365.07 -83.36Q365.07 -87.43 367.71 -90.11Q370.36 -92.79 374.5 -92.79Q378.71 -92.79 381.36 -90.11Q384 -87.43 384 -83.36Q384 -79.29 381.36 -76.61Q378.71 -73.93 374.5 -73.93ZM415.5 -103.71V-6.64Q415.5 -5.21 415.96 -4.5Q416.43 -3.79 417.5 -3.57L421.14 -2.86Q421.86 -2.64 422.14 -2.29Q422.43 -1.93 422.43 -1.36Q422.43 -0.71 422 -0.36Q421.57 0 420.86 0H395.07Q394.36 0 393.93 -0.36Q393.5 -0.71 393.5 -1.36Q393.5 -1.86 393.86 -2.25Q394.21 -2.64 394.93 -2.93L398.5 -3.57Q399.57 -3.79 400.04 -4.5Q400.5 -5.21 400.5 -6.57V-95.21Q400.5 -96.21 400.18 -96.64Q399.86 -97.07 399.14 -97.14L394.57 -97.21Q393.93 -97.43 393.64 -97.75Q393.36 -98.07 393.36 -98.57Q393.36 -99.14 393.71 -99.5Q394.07 -99.86 394.86 -100.14L411 -104.93Q412.21 -105.29 412.79 -105.43Q413.36 -105.57 413.86 -105.57Q414.71 -105.57 415.11 -105.07Q415.5 -104.57 415.5 -103.71Z" fill="#143D31"/><path transform="translate(200.00 173.00) scale(0.2000)" d="M41.53 1.25Q23.47 1.25 12.64 -7.36Q1.81 -15.97 0 -31.94H14.31Q15.56 -21.53 22.64 -16.11Q29.72 -10.69 41.81 -10.69Q51.94 -10.69 57.15 -14.44Q62.36 -18.19 62.36 -25.14Q62.36 -31.39 58.89 -35.07Q55.42 -38.75 47.92 -41.11L30.56 -46.67Q17.22 -50.97 10.97 -57.5Q4.72 -64.03 4.72 -74.03Q4.72 -82.5 8.96 -88.61Q13.19 -94.72 20.9 -98.12Q28.61 -101.53 38.89 -101.53Q54.72 -101.53 64.24 -93.54Q73.75 -85.56 75.14 -71.39H60.83Q59.17 -80.83 53.61 -85.21Q48.06 -89.58 38.33 -89.58Q29.17 -89.58 24.03 -85.97Q18.89 -82.36 18.89 -75.83Q18.89 -70.56 22.29 -67.01Q25.69 -63.47 33.61 -60.97L51.81 -55.14Q64.44 -51.11 70.49 -44.17Q76.53 -37.22 76.53 -26.67Q76.53 -13.33 67.36 -6.04Q58.19 1.25 41.53 1.25ZM108.61 0 146.25 -100H159.03L123.06 0ZM185.97 0 150 -100H163.47L201.25 0ZM127.64 -39.86H181.25V-27.64H127.64ZM240.97 0V-100H255.69V0ZM248.19 0V-12.08H305.97V0ZM347.78 0V-100H362.5V0ZM355 0V-12.08H417.22V0ZM355 -45.69V-57.78H412.22V-45.69ZM355 -87.92V-100H415.97V-87.92ZM491.81 1.25Q473.75 1.25 462.92 -7.36Q452.08 -15.97 450.28 -31.94H464.58Q465.83 -21.53 472.92 -16.11Q480 -10.69 492.08 -10.69Q502.22 -10.69 507.43 -14.44Q512.64 -18.19 512.64 -25.14Q512.64 -31.39 509.17 -35.07Q505.69 -38.75 498.19 -41.11L480.83 -46.67Q467.5 -50.97 461.25 -57.5Q455 -64.03 455 -74.03Q455 -82.5 459.24 -88.61Q463.47 -94.72 471.18 -98.12Q478.89 -101.53 489.17 -101.53Q505 -101.53 514.51 -93.54Q524.03 -85.56 525.42 -71.39H511.11Q509.44 -80.83 503.89 -85.21Q498.33 -89.58 488.61 -89.58Q479.44 -89.58 474.31 -85.97Q469.17 -82.36 469.17 -75.83Q469.17 -70.56 472.57 -67.01Q475.97 -63.47 483.89 -60.97L502.08 -55.14Q514.72 -51.11 520.76 -44.17Q526.81 -37.22 526.81 -26.67Q526.81 -13.33 517.64 -6.04Q508.47 1.25 491.81 1.25ZM567.08 0V-100H581.81V0ZM574.31 -41.53V-53.61H629.31V-41.53ZM574.31 -87.92V-100H633.06V-87.92ZM716.25 1.39Q705.56 1.39 696.67 -2.43Q687.78 -6.25 681.25 -13.19Q674.72 -20.14 671.04 -29.58Q667.36 -39.03 667.36 -50.42Q667.36 -65.42 673.61 -76.94Q679.86 -88.47 690.9 -94.93Q701.94 -101.39 716.11 -101.39Q730.56 -101.39 741.53 -94.93Q752.5 -88.47 758.82 -76.94Q765.14 -65.42 765.14 -50.28Q765.14 -39.03 761.46 -29.51Q757.78 -20 751.25 -13.12Q744.72 -6.25 735.76 -2.43Q726.81 1.39 716.25 1.39ZM716.11 -11.11Q726.11 -11.11 733.75 -16.18Q741.39 -21.25 745.76 -30.14Q750.14 -39.03 750.14 -50.56Q750.14 -61.94 745.83 -70.62Q741.53 -79.31 733.89 -84.1Q726.25 -88.89 716.11 -88.89Q705.97 -88.89 698.4 -84.1Q690.83 -79.31 686.6 -70.69Q682.36 -62.08 682.36 -50.56Q682.36 -38.89 686.67 -30Q690.97 -21.11 698.54 -16.11Q706.11 -11.11 716.11 -11.11ZM806.25 0V-100H845.69Q856.53 -100 864.17 -96.46Q871.81 -92.92 875.97 -86.6Q880.14 -80.28 880.14 -71.67Q880.14 -63.06 875.97 -56.67Q871.81 -50.28 864.17 -46.67Q856.53 -43.06 845.69 -43.06H817.36V-55H845.28Q855.28 -55 860.49 -59.38Q865.69 -63.75 865.69 -71.53Q865.69 -79.31 860.56 -83.61Q855.42 -87.92 845.28 -87.92H820.97V0ZM864.03 0 815.28 -50.42H833.19L885.14 0ZM965.69 1.39Q955.28 1.39 946.39 -2.43Q937.5 -6.25 931.04 -13.12Q924.58 -20 920.97 -29.44Q917.36 -38.89 917.36 -50.14Q917.36 -61.39 920.9 -70.76Q924.44 -80.14 930.9 -87.01Q937.36 -93.89 946.25 -97.64Q955.14 -101.39 965.56 -101.39Q977.22 -101.39 986.53 -96.74Q995.83 -92.08 1001.74 -83.61Q1007.64 -75.14 1009.03 -63.89H994.58Q992.78 -75.69 985.07 -82.29Q977.36 -88.89 965.69 -88.89Q955.83 -88.89 948.26 -84.1Q940.69 -79.31 936.53 -70.62Q932.36 -61.94 932.36 -50.14Q932.36 -38.47 936.6 -29.65Q940.83 -20.83 948.33 -15.97Q955.83 -11.11 965.69 -11.11Q977.36 -11.11 985.21 -17.71Q993.06 -24.31 994.72 -36.11H1009.31Q1007.78 -24.72 1001.81 -16.32Q995.83 -7.92 986.6 -3.26Q977.36 1.39 965.69 1.39ZM1050 0V-100H1064.72V0ZM1057.22 0V-12.08H1119.44V0ZM1057.22 -45.69V-57.78H1114.44V-45.69ZM1057.22 -87.92V-100H1118.19V-87.92ZM1259.44 1.39Q1249.03 1.39 1240.14 -2.43Q1231.25 -6.25 1224.79 -13.12Q1218.33 -20 1214.72 -29.44Q1211.11 -38.89 1211.11 -50.14Q1211.11 -61.39 1214.65 -70.76Q1218.19 -80.14 1224.65 -87.01Q1231.11 -93.89 1240 -97.64Q1248.89 -101.39 1259.31 -101.39Q1270.97 -101.39 1280.28 -96.74Q1289.58 -92.08 1295.49 -83.61Q1301.39 -75.14 1302.78 -63.89H1288.33Q1286.53 -75.69 1278.82 -82.29Q1271.11 -88.89 1259.44 -88.89Q1249.58 -88.89 1242.01 -84.1Q1234.44 -79.31 1230.28 -70.62Q1226.11 -61.94 1226.11 -50.14Q1226.11 -38.47 1230.35 -29.65Q1234.58 -20.83 1242.08 -15.97Q1249.58 -11.11 1259.44 -11.11Q1271.11 -11.11 1278.96 -17.71Q1286.81 -24.31 1288.47 -36.11H1303.06Q1301.53 -24.72 1295.56 -16.32Q1289.58 -7.92 1280.35 -3.26Q1271.11 1.39 1259.44 1.39ZM1387.78 1.39Q1377.08 1.39 1368.19 -2.43Q1359.31 -6.25 1352.78 -13.19Q1346.25 -20.14 1342.57 -29.58Q1338.89 -39.03 1338.89 -50.42Q1338.89 -65.42 1345.14 -76.94Q1351.39 -88.47 1362.43 -94.93Q1373.47 -101.39 1387.64 -101.39Q1402.08 -101.39 1413.06 -94.93Q1424.03 -88.47 1430.35 -76.94Q1436.67 -65.42 1436.67 -50.28Q1436.67 -39.03 1432.99 -29.51Q1429.31 -20 1422.78 -13.12Q1416.25 -6.25 1407.29 -2.43Q1398.33 1.39 1387.78 1.39ZM1387.64 -11.11Q1397.64 -11.11 1405.28 -16.18Q1412.92 -21.25 1417.29 -30.14Q1421.67 -39.03 1421.67 -50.56Q1421.67 -61.94 1417.36 -70.62Q1413.06 -79.31 1405.42 -84.1Q1397.78 -88.89 1387.64 -88.89Q1377.5 -88.89 1369.93 -84.1Q1362.36 -79.31 1358.12 -70.69Q1353.89 -62.08 1353.89 -50.56Q1353.89 -38.89 1358.19 -30Q1362.5 -21.11 1370.07 -16.11Q1377.64 -11.11 1387.64 -11.11ZM1477.92 0V-100H1495L1548.06 -14.44L1544.72 -13.75V-100H1558.89V0H1541.81L1488.75 -85.56L1492.08 -86.25V0ZM1640.69 1.25Q1622.64 1.25 1611.81 -7.36Q1600.97 -15.97 1599.17 -31.94H1613.47Q1614.72 -21.53 1621.81 -16.11Q1628.89 -10.69 1640.97 -10.69Q1651.11 -10.69 1656.32 -14.44Q1661.53 -18.19 1661.53 -25.14Q1661.53 -31.39 1658.06 -35.07Q1654.58 -38.75 1647.08 -41.11L1629.72 -46.67Q1616.39 -50.97 1610.14 -57.5Q1603.89 -64.03 1603.89 -74.03Q1603.89 -82.5 1608.12 -88.61Q1612.36 -94.72 1620.07 -98.12Q1627.78 -101.53 1638.06 -101.53Q1653.89 -101.53 1663.4 -93.54Q1672.92 -85.56 1674.31 -71.39H1660Q1658.33 -80.83 1652.78 -85.21Q1647.22 -89.58 1637.5 -89.58Q1628.33 -89.58 1623.19 -85.97Q1618.06 -82.36 1618.06 -75.83Q1618.06 -70.56 1621.46 -67.01Q1624.86 -63.47 1632.78 -60.97L1650.97 -55.14Q1663.61 -51.11 1669.65 -44.17Q1675.69 -37.22 1675.69 -26.67Q1675.69 -13.33 1666.53 -6.04Q1657.36 1.25 1640.69 1.25ZM1754.86 1.39Q1735.69 1.39 1725.42 -9.86Q1715.14 -21.11 1715.14 -41.94V-100H1729.86V-40.28Q1729.86 -25.97 1736.39 -18.54Q1742.92 -11.11 1754.86 -11.11Q1767.08 -11.11 1773.61 -18.47Q1780.14 -25.83 1780.14 -40.28V-100H1794.86V-41.67Q1794.86 -21.11 1784.51 -9.86Q1774.17 1.39 1754.86 1.39ZM1839.44 0V-100H1854.17V0ZM1846.67 0V-12.08H1904.44V0ZM1955.97 0V-87.92H1922.22V-100H2004.44V-87.92H1970.69V0ZM2021.53 0 2059.17 -100H2071.94L2035.97 0ZM2098.89 0 2062.92 -100H2076.39L2114.17 0ZM2040.56 -39.86H2094.17V-27.64H2040.56ZM2153.89 0V-100H2170.97L2224.03 -14.44L2220.69 -13.75V-100H2234.86V0H2217.78L2164.72 -85.56L2168.06 -86.25V0ZM2324.44 1.39Q2314.03 1.39 2305.14 -2.43Q2296.25 -6.25 2289.79 -13.12Q2283.33 -20 2279.72 -29.44Q2276.11 -38.89 2276.11 -50.14Q2276.11 -61.39 2279.65 -70.76Q2283.19 -80.14 2289.65 -87.01Q2296.11 -93.89 2305 -97.64Q2313.89 -101.39 2324.31 -101.39Q2335.97 -101.39 2345.28 -96.74Q2354.58 -92.08 2360.49 -83.61Q2366.39 -75.14 2367.78 -63.89H2353.33Q2351.53 -75.69 2343.82 -82.29Q2336.11 -88.89 2324.44 -88.89Q2314.58 -88.89 2307.01 -84.1Q2299.44 -79.31 2295.28 -70.62Q2291.11 -61.94 2291.11 -50.14Q2291.11 -38.47 2295.35 -29.65Q2299.58 -20.83 2307.08 -15.97Q2314.58 -11.11 2324.44 -11.11Q2336.11 -11.11 2343.96 -17.71Q2351.81 -24.31 2353.47 -36.11H2368.06Q2366.53 -24.72 2360.56 -16.32Q2354.58 -7.92 2345.35 -3.26Q2336.11 1.39 2324.44 1.39ZM2431.67 0V-43.61L2394.03 -100H2411.81L2443.61 -50.28H2435.97L2467.78 -100H2484.03L2446.39 -43.61V0Z" fill="#3F6D58"/></svg>
