<svg xmlns="http://www.w3.org/2000/svg" viewBox="0 0 624.429 220" width="624.429" height="220" role="img" aria-label="Anduril lockup with tagline (ink-on-ivory)"><title>Anduril lockup with tagline (ink-on-ivory)</title><g transform="translate(4 4.00) scale(1.500)"><path d="M66.97 66.97 L51.27 55.80 L50 50 L55.80 51.27 Z" fill="#143D31"/><path d="M33.03 66.97 L44.20 51.27 L50 50 L48.73 55.80 Z" fill="#143D31"/><path d="M33.03 33.03 L48.73 44.20 L50 50 L44.20 48.73 Z" fill="#143D31"/><path d="M66.97 33.03 L55.80 48.73 L50 50 L51.27 44.20 Z" fill="#143D31"/><path d="M50.00 12.00 L55.60 43.00 L50 50 L44.40 43.00 Z" fill="#143D31"/><path d="M88.00 50.00 L57.00 55.60 L50 50 L57.00 44.40 Z" fill="#143D31"/><path d="M50.00 88.00 L44.40 57.00 L50 50 L55.60 57.00 Z" fill="#143D31"/><path d="M1.00 50.00 L43.00 43.80 L50 50 L43.00 56.20 Z" fill="#C9A14B"/></g><path transform="translate(198.00 129.00) scale(1.0000)" d="M20.21 -39.5H58.36L58.57 -36H19.86ZM24.79 -1.57Q24.79 -0.86 24.36 -0.43Q23.93 0 23 0H1.79Q0.93 0 0.46 -0.43Q0 -0.86 0 -1.57Q0 -2.21 0.36 -2.57Q0.71 -2.93 1.36 -3.21L4.14 -4.14Q6.14 -4.86 7.82 -6.82Q9.5 -8.79 10.86 -13.36L34 -90.29Q34.79 -92.86 34.11 -94.25Q33.43 -95.64 31.29 -96.43Q30.14 -97 29.61 -97.39Q29.07 -97.79 29.07 -98.43Q29.07 -99.21 29.54 -99.61Q30 -100 30.93 -100H57.93Q58.86 -100 59.32 -99.61Q59.79 -99.21 59.79 -98.43Q59.79 -97.79 59.29 -97.36Q58.79 -96.93 57.64 -96.5Q55.79 -96.07 55.39 -95.32Q55 -94.57 55.64 -92.57L82.43 -8.57Q83.21 -6.07 84.43 -4.96Q85.64 -3.86 87.64 -3.43Q88.5 -3.07 88.86 -2.64Q89.21 -2.21 89.21 -1.57Q89.21 -0.93 88.75 -0.46Q88.29 0 87.36 0H59Q58.07 0 57.61 -0.43Q57.14 -0.86 57.14 -1.57Q57.14 -2.21 57.57 -2.57Q58 -2.93 58.71 -3.21L62.57 -3.86Q64.14 -4.21 64.54 -5.29Q64.93 -6.36 64.21 -8.64L37.57 -93.07L39.29 -95.29L14.71 -13.64Q13.86 -10.86 14.32 -8.93Q14.79 -7 16.32 -5.82Q17.86 -4.64 20.21 -3.93L23.29 -3.21Q24.07 -2.93 24.43 -2.57Q24.79 -2.21 24.79 -1.57ZM113.5 -61.64V-6.64Q113.5 -5.21 113.93 -4.46Q114.36 -3.71 115.43 -3.43L119.07 -2.79Q120.21 -2.36 120.21 -1.36Q120.21 0 118.79 0H93Q92.29 0 91.89 -0.36Q91.5 -0.71 91.5 -1.36Q91.5 -1.86 91.79 -2.21Q92.07 -2.57 92.71 -2.86L96.43 -3.57Q97.57 -3.79 98 -4.5Q98.43 -5.21 98.43 -6.57V-53.14Q98.43 -54.14 98.14 -54.57Q97.86 -55 97.07 -55.07L92.5 -55.14Q91.86 -55.36 91.57 -55.68Q91.29 -56 91.29 -56.5Q91.29 -57.07 91.64 -57.43Q92 -57.79 92.86 -58.07L108.93 -62.86Q110.14 -63.21 110.71 -63.36Q111.29 -63.5 111.86 -63.5Q112.64 -63.5 113.07 -63Q113.5 -62.5 113.5 -61.64ZM112.07 -47.5 110.64 -49.14 113.29 -51.64Q120.21 -58.07 125.39 -60.93Q130.57 -63.79 135.36 -63.79Q142.14 -63.79 145.82 -59.54Q149.5 -55.29 150.64 -46.79L155.79 -6.93Q156 -5.43 156.46 -4.57Q156.93 -3.71 158.14 -3.43L161.43 -2.86Q162 -2.57 162.32 -2.21Q162.64 -1.86 162.64 -1.36Q162.64 -0.71 162.21 -0.36Q161.79 0 161.07 0H134.93Q133.36 0 133.36 -1.36Q133.36 -2.29 134.57 -2.79L138.36 -3.43Q139.64 -3.71 140.18 -4.57Q140.71 -5.43 140.5 -6.86L135.86 -44Q135 -50 132.82 -52.86Q130.64 -55.71 126.43 -55.71Q123.57 -55.71 120.68 -54.25Q117.79 -52.79 114.5 -49.71ZM210.57 -9.64 210.36 -10.07V-95.21Q210.36 -96.21 210.07 -96.64Q209.79 -97.07 209 -97.14L204.43 -97.21Q203.79 -97.43 203.5 -97.75Q203.21 -98.07 203.21 -98.57Q203.21 -99.14 203.57 -99.5Q203.93 -99.86 204.79 -100.14L220.86 -104.93Q222.07 -105.29 222.64 -105.43Q223.21 -105.57 223.79 -105.57Q224.57 -105.57 225 -105.07Q225.43 -104.57 225.43 -103.71V-6.64Q225.43 -5.21 225.89 -4.5Q226.36 -3.79 227.43 -3.57L231 -2.86Q231.71 -2.64 232 -2.29Q232.29 -1.93 232.29 -1.36Q232.29 -0.71 231.89 -0.36Q231.5 0 230.71 0H214.21Q212.57 0 211.57 -1Q210.57 -2 210.57 -3.86ZM164.86 -29.57Q164.86 -40.29 168.82 -47.96Q172.79 -55.64 179.43 -59.71Q186.07 -63.79 194.21 -63.79Q201.57 -63.79 206.64 -60.61Q211.71 -57.43 214.79 -52L212.71 -49.71Q210.29 -54.5 206.36 -57.11Q202.43 -59.71 197.29 -59.71Q192.57 -59.71 188.68 -56.68Q184.79 -53.64 182.5 -47.32Q180.21 -41 180.21 -31.07Q180.21 -22 182.29 -15.96Q184.36 -9.93 187.96 -6.93Q191.57 -3.93 196.29 -3.93Q200.43 -3.93 204.5 -6.32Q208.57 -8.71 212.14 -13.71L213.43 -11.79Q208.21 -4.93 202.75 -1.75Q197.29 1.43 190.71 1.43Q183.21 1.43 177.36 -2.32Q171.5 -6.07 168.18 -13.04Q164.86 -20 164.86 -29.57ZM281.64 -3.93V-11.57L281.5 -12V-53.07Q281.5 -54 281.21 -54.43Q280.93 -54.86 280.14 -55L275.57 -55.07Q274.93 -55.21 274.64 -55.57Q274.36 -55.93 274.36 -56.36Q274.36 -56.93 274.71 -57.32Q275.07 -57.71 275.93 -58L292 -62.71Q293.21 -63.14 293.79 -63.29Q294.36 -63.43 294.93 -63.43Q295.71 -63.43 296.14 -62.89Q296.57 -62.36 296.57 -61.57V-6.64Q296.57 -5.21 297.04 -4.5Q297.5 -3.79 298.57 -3.57L302.21 -2.86Q302.86 -2.64 303.14 -2.29Q303.43 -1.93 303.43 -1.36Q303.43 -0.71 303.04 -0.36Q302.64 0 301.86 0H285.36Q283.57 0 282.61 -1.04Q281.64 -2.07 281.64 -3.93ZM241.5 -17.29V-53.07Q241.5 -54 241.18 -54.43Q240.86 -54.86 240.07 -55L235.5 -55.07Q234.86 -55.21 234.57 -55.57Q234.29 -55.93 234.29 -56.36Q234.29 -56.93 234.64 -57.32Q235 -57.71 235.86 -58L252 -62.71Q253.21 -63.14 253.79 -63.29Q254.36 -63.43 254.86 -63.43Q255.71 -63.43 256.11 -62.89Q256.5 -62.36 256.5 -61.57V-19.5Q256.5 -13 259.5 -9.89Q262.5 -6.79 267.36 -6.79Q270.57 -6.79 273.93 -8.25Q277.29 -9.71 280.71 -12.93L283.14 -15.07L284.57 -13.36L282 -10.93Q274.86 -4.21 269.04 -1.46Q263.21 1.29 258 1.29Q250.79 1.29 246.14 -3.32Q241.5 -7.93 241.5 -17.29ZM327.93 -34.93Q327.93 -44.5 330.57 -50.93Q333.21 -57.36 337.43 -60.57Q341.64 -63.79 346.36 -63.79Q351.64 -63.79 354.54 -60.54Q357.43 -57.29 357.43 -51.29Q357.43 -46.43 355.25 -44.04Q353.07 -41.64 349.86 -41.64Q346.64 -41.64 345.04 -43.36Q343.43 -45.07 343.29 -48.5V-50.71Q343.21 -53 342.29 -54.11Q341.36 -55.21 339.21 -55.21Q336.71 -55.21 334.39 -52.93Q332.07 -50.64 330.64 -46.11Q329.21 -41.57 329.21 -34.79ZM328.93 -61.21 329.21 -40V-6.86Q329.21 -5.57 329.75 -4.79Q330.29 -4 331.5 -3.79L337.86 -2.86Q338.71 -2.71 339.04 -2.32Q339.36 -1.93 339.36 -1.36Q339.36 -0.79 338.93 -0.39Q338.5 0 337.71 0H308.86Q308.07 0 307.61 -0.39Q307.14 -0.79 307.14 -1.36Q307.14 -1.93 307.5 -2.29Q307.86 -2.64 308.57 -2.93L312.14 -3.57Q313.21 -3.86 313.68 -4.5Q314.14 -5.14 314.14 -6.43V-53.36Q314.14 -54.29 313.86 -54.75Q313.57 -55.21 312.79 -55.36L308.07 -55.43Q307.5 -55.57 307.21 -55.93Q306.93 -56.29 306.93 -56.71Q306.93 -57.29 307.32 -57.68Q307.71 -58.07 308.5 -58.36L324.79 -62.64Q325.79 -63 326.39 -63.11Q327 -63.21 327.43 -63.21Q328.14 -63.21 328.5 -62.75Q328.86 -62.29 328.93 -61.21ZM382.5 -61.64V-6.64Q382.5 -5.21 382.96 -4.54Q383.43 -3.86 384.5 -3.57L388.14 -2.86Q388.79 -2.64 389.11 -2.29Q389.43 -1.93 389.43 -1.36Q389.43 -0.71 389 -0.36Q388.57 0 387.79 0H362.07Q361.36 0 360.93 -0.36Q360.5 -0.71 360.5 -1.36Q360.5 -1.86 360.79 -2.21Q361.07 -2.57 361.71 -2.86L365.5 -3.57Q366.57 -3.86 367.04 -4.54Q367.5 -5.21 367.5 -6.57V-53.14Q367.5 -54.14 367.18 -54.57Q366.86 -55 366.14 -55.07L361.5 -55.14Q360.93 -55.36 360.64 -55.68Q360.36 -56 360.36 -56.5Q360.36 -57.07 360.71 -57.43Q361.07 -57.79 361.86 -58.07L378 -62.86Q379.21 -63.21 379.79 -63.36Q380.36 -63.5 380.86 -63.5Q381.71 -63.5 382.11 -63Q382.5 -62.5 382.5 -61.64ZM374.5 -73.93Q370.29 -73.93 367.68 -76.61Q365.07 -79.29 365.07 -83.36Q365.07 -87.43 367.71 -90.11Q370.36 -92.79 374.5 -92.79Q378.71 -92.79 381.36 -90.11Q384 -87.43 384 -83.36Q384 -79.29 381.36 -76.61Q378.71 -73.93 374.5 -73.93ZM415.5 -103.71V-6.64Q415.5 -5.21 415.96 -4.5Q416.43 -3.79 417.5 -3.57L421.14 -2.86Q421.86 -2.64 422.14 -2.29Q422.43 -1.93 422.43 -1.36Q422.43 -0.71 422 -0.36Q421.57 0 420.86 0H395.07Q394.36 0 393.93 -0.36Q393.5 -0.71 393.5 -1.36Q393.5 -1.86 393.86 -2.25Q394.21 -2.64 394.93 -2.93L398.5 -3.57Q399.57 -3.79 400.04 -4.5Q400.5 -5.21 400.5 -6.57V-95.21Q400.5 -96.21 400.18 -96.64Q399.86 -97.07 399.14 -97.14L394.57 -97.21Q393.93 -97.43 393.64 -97.75Q393.36 -98.07 393.36 -98.57Q393.36 -99.14 393.71 -99.5Q394.07 -99.86 394.86 -100.14L411 -104.93Q412.21 -105.29 412.79 -105.43Q413.36 -105.57 413.86 -105.57Q414.71 -105.57 415.11 -105.07Q415.5 -104.57 415.5 -103.71Z" fill="#143D31"/><path transform="translate(200.00 191.00) scale(0.3600)" d="M30.97 1.43Q25.04 1.43 21.22 0.07Q17.4 -1.29 15.15 -3.04Q12.9 -4.79 11.72 -6.14Q10.54 -7.5 9.82 -7.5Q9.25 -7.5 8.15 -6.32Q7.04 -5.14 5.75 -3.57Q4.47 -2 3.29 -0.82Q2.11 0.36 1.47 0.36Q0.68 0.36 0.29 -0.21Q-0.1 -0.79 0.04 -1.86L4.82 -28.71Q5.04 -29.71 5.4 -30.21Q5.75 -30.71 6.32 -30.71Q7.04 -30.71 7.36 -30.25Q7.68 -29.79 7.82 -28.71L9.18 -20.14Q10.4 -11.14 15.5 -6.54Q20.61 -1.93 28.54 -1.93Q34.04 -1.93 38.29 -4.14Q42.54 -6.36 45.15 -10.25Q47.75 -14.14 48.32 -19.14Q49.11 -25.64 46.07 -31.25Q43.04 -36.86 34.68 -43.21Q25.11 -50.5 21.25 -57.11Q17.4 -63.71 17.97 -71.93Q18.54 -79.64 23.04 -86.39Q27.54 -93.14 35.43 -97.32Q43.32 -101.5 53.9 -101.5Q62.97 -101.5 68.9 -98.46Q74.82 -95.43 77.68 -90.54Q80.54 -85.64 80.25 -80.14Q80.11 -76.64 78.61 -74.64Q77.11 -72.64 74.54 -72.64Q72.68 -72.64 71.5 -74Q70.32 -75.36 69.68 -78.14L68.54 -83.93Q67.04 -91.64 63.15 -95.14Q59.25 -98.64 53.11 -98.64Q46.75 -98.64 41.9 -95.93Q37.04 -93.21 34.22 -88.71Q31.4 -84.21 30.97 -78.71Q30.4 -71.93 33.65 -66.18Q36.9 -60.43 45.25 -53.57Q52.32 -47.93 56.18 -43.07Q60.04 -38.21 61.32 -33.57Q62.61 -28.93 62.04 -23.79Q61.4 -16.14 57.11 -10.43Q52.82 -4.71 46.04 -1.64Q39.25 1.43 30.97 1.43ZM123.54 -16.86Q121.75 -10.07 122.11 -7.82Q122.47 -5.57 124.4 -5.57Q125.9 -5.57 127.61 -6.75Q129.32 -7.93 131.9 -11.07Q132.4 -11.64 132.68 -11.79Q132.97 -11.93 133.25 -11.86Q133.82 -11.71 133.86 -11.11Q133.9 -10.5 133.4 -9.36Q130.54 -4.36 126.36 -1.57Q122.18 1.21 117.18 1.21Q113.54 1.21 111.75 -0.61Q109.97 -2.43 109.97 -5.86Q109.97 -7.21 110.29 -9.36Q110.61 -11.5 111.29 -14.57Q111.97 -17.64 113.11 -21.75Q114.25 -25.86 115.82 -31.29L116.61 -30.14Q112.61 -20.36 108.11 -13.32Q103.61 -6.29 98.47 -2.54Q93.32 1.21 87.4 1.21Q80.68 1.21 77.29 -4.11Q73.9 -9.43 75.4 -20.36Q76.18 -26.93 78.9 -33.21Q81.61 -39.5 85.86 -44.93Q90.11 -50.36 95.61 -54.46Q101.11 -58.57 107.57 -60.93Q114.04 -63.29 121.11 -63.29Q125.9 -63.29 129.32 -62.57Q132.75 -61.86 134.61 -60.75Q136.47 -59.64 136.47 -58.5Q136.4 -57.57 135.75 -57Q135.11 -56.43 134.43 -55.86Q133.75 -55.29 133.4 -54.14ZM88.04 -19.36Q86.75 -11.64 88.54 -8Q90.32 -4.36 93.4 -4.36Q96.18 -4.36 99.18 -6.71Q102.18 -9.07 105.22 -13.46Q108.25 -17.86 111.15 -23.96Q114.04 -30.07 116.65 -37.64Q119.25 -45.21 121.4 -53.93Q122.11 -56.86 121.57 -58.43Q121.04 -60 118.4 -60Q114.32 -60 110.32 -57.75Q106.32 -55.5 102.68 -51.57Q99.04 -47.64 96.07 -42.46Q93.11 -37.29 91 -31.39Q88.9 -25.5 88.04 -19.36ZM183.4 -103.64Q187.68 -103.64 189.72 -102Q191.75 -100.36 191.75 -98.14Q191.75 -96 190.25 -94.64Q188.75 -93.29 186.32 -93.29Q184.82 -93.29 183.29 -93.86Q181.75 -94.43 180.22 -95.18Q178.68 -95.93 177.22 -96.5Q175.75 -97.07 174.4 -97.07Q172.9 -97.07 171.54 -96.04Q170.18 -95 169.25 -93.39Q168.32 -91.79 168.18 -89.93Q168.04 -88.43 168.5 -87Q168.97 -85.57 169.68 -84Q170.4 -82.43 170.93 -80.54Q171.47 -78.64 171.54 -76.29Q171.61 -73.93 170.75 -70.79L154.47 -15.93Q152.68 -9.79 153.15 -7.71Q153.61 -5.64 155.47 -5.64Q156.97 -5.64 158.75 -6.79Q160.54 -7.93 163.18 -11.07Q163.61 -11.64 163.93 -11.82Q164.25 -12 164.54 -11.86Q165.04 -11.79 165.11 -11.11Q165.18 -10.43 164.61 -9.36Q162.61 -6 160 -3.64Q157.4 -1.29 154.32 -0.04Q151.25 1.21 147.68 1.21Q144.18 1.21 142.32 -0.32Q140.47 -1.86 140.22 -4.96Q139.97 -8.07 141.32 -12.71L163.11 -87Q165.61 -95.5 170.72 -99.57Q175.82 -103.64 183.4 -103.64ZM179.82 -30.29Q179.82 -30.29 182.5 -31.25Q185.18 -32.21 189.36 -33.79Q193.54 -35.36 198.18 -37.11Q202.82 -38.86 206.93 -40.36Q211.04 -41.86 213.47 -42.79L212.11 -40.93Q212.75 -42.5 213.11 -44.64Q213.47 -46.79 213.47 -49.93Q213.47 -54.57 211.79 -57.54Q210.11 -60.5 207.04 -60.5Q203.75 -60.5 200.54 -58.14Q197.32 -55.79 194.47 -51.39Q191.61 -47 189.5 -40.89Q187.4 -34.79 186.4 -27.29Q185.04 -16.93 188.47 -11.39Q191.9 -5.86 198.97 -5.86Q202.82 -5.86 206.4 -7.46Q209.97 -9.07 213.07 -12.43Q216.18 -15.79 218.61 -21Q219.18 -21.86 219.65 -22.18Q220.11 -22.5 220.61 -22.43Q221.11 -22.29 221.29 -21.79Q221.47 -21.29 221.18 -20.36Q218.97 -14 214.9 -9.11Q210.82 -4.21 205.04 -1.5Q199.25 1.21 191.9 1.21Q185.18 1.21 180.61 -1.86Q176.04 -4.93 174.07 -10.82Q172.11 -16.71 173.04 -25.14Q173.97 -33.07 177.11 -40.04Q180.25 -47 185 -52.25Q189.75 -57.5 195.65 -60.5Q201.54 -63.5 207.97 -63.5Q213.11 -63.5 216.54 -61.39Q219.97 -59.29 221.68 -55.79Q223.4 -52.29 223.47 -48.07Q223.54 -47.14 223.97 -46.71Q224.4 -46.29 225.32 -46.36Q225.9 -46.36 226.22 -46.11Q226.54 -45.86 226.61 -45.5Q226.75 -44.93 226.36 -44.5Q225.97 -44.07 224.97 -43.71Q223.4 -43.14 219.47 -41.75Q215.54 -40.36 210.5 -38.54Q205.47 -36.71 200.15 -34.86Q194.82 -33 190.29 -31.39Q185.75 -29.79 182.93 -28.79Q180.11 -27.79 180.11 -27.79ZM245.61 -1.64Q250.25 -1.64 253.15 -4.36Q256.04 -7.07 256.04 -11.07Q256.04 -13.14 255.18 -15.18Q254.32 -17.21 252.15 -19.79Q249.97 -22.36 246.04 -26Q241.61 -30 238.97 -33.04Q236.32 -36.07 235.25 -38.93Q234.18 -41.79 234.32 -45.14Q234.54 -50.14 237.61 -54.32Q240.68 -58.5 246.07 -61Q251.47 -63.5 258.54 -63.5Q264.54 -63.5 268.57 -61.96Q272.61 -60.43 274.68 -57.96Q276.75 -55.5 276.82 -52.64Q276.82 -50.21 275.72 -48.89Q274.61 -47.57 272.75 -47.57Q270.75 -47.57 269.36 -48.89Q267.97 -50.21 266.61 -53.79Q265.18 -57.36 262.86 -59.07Q260.54 -60.79 257.4 -60.79Q252.4 -60.79 249.22 -57.75Q246.04 -54.71 246.04 -50Q245.97 -47.64 246.79 -45.36Q247.61 -43.07 250 -40.21Q252.4 -37.36 257.04 -33.14Q261.54 -29.29 264 -26.29Q266.47 -23.29 267.29 -20.61Q268.11 -17.93 267.82 -14.86Q267.47 -10.14 264.43 -6.54Q261.4 -2.93 256.32 -0.86Q251.25 1.21 244.54 1.21Q238.47 1.21 234.04 -0.68Q229.61 -2.57 227.29 -5.57Q224.97 -8.57 224.97 -11.86Q224.97 -14 226 -15.39Q227.04 -16.79 228.97 -16.79Q230.97 -16.79 232.4 -15.29Q233.82 -13.79 235.04 -10.29Q237.04 -5.5 239.68 -3.57Q242.32 -1.64 245.61 -1.64ZM300.75 -58.29 301.9 -61.64H316.82Q317.68 -61.64 318.18 -61.36Q318.68 -61.07 318.68 -60.36Q318.68 -59.79 318.25 -59.32Q317.82 -58.86 317.15 -58.57Q316.47 -58.29 315.61 -58.29ZM284.18 -60.21Q284.18 -60.86 284.68 -61.25Q285.18 -61.64 286.04 -61.64H294.75L300.47 -81.86Q303.54 -92.71 309.15 -97.96Q314.75 -103.21 323.25 -103.21Q327.18 -103.21 329.29 -101.46Q331.4 -99.71 331.4 -97.29Q331.4 -95 329.75 -93.46Q328.11 -91.93 325.32 -91.93Q323.4 -91.93 322 -92.64Q320.61 -93.36 319.43 -94.29Q318.25 -95.21 317.11 -95.89Q315.97 -96.57 314.61 -96.57Q312.04 -96.57 309.9 -94.46Q307.75 -92.36 306.82 -89.21Q306.32 -87.14 306.82 -84.68Q307.32 -82.21 308.04 -79.5Q308.75 -76.79 309.11 -73.89Q309.47 -71 308.61 -67.93L287.75 7.36Q287.18 9.57 286.86 11.21Q286.54 12.86 286.54 14.14Q286.54 15.79 287.18 16.79Q287.82 17.79 288.5 18.61Q289.18 19.43 289.18 20.5Q289.18 21.86 287.47 23.29Q285.75 24.71 282.97 25.64Q280.18 26.57 277.04 26.57Q273.4 26.57 272.57 24.04Q271.75 21.5 273.25 16L292.18 -51.43Q293.18 -55 291.97 -56.64Q290.75 -58.29 285.75 -58.64Q284.9 -58.86 284.54 -59.29Q284.18 -59.71 284.18 -60.21ZM349.04 -63.36Q356.47 -63.21 361.5 -59.46Q366.54 -55.71 368.72 -49.04Q370.9 -42.36 369.54 -33.36Q368.47 -25.93 365.5 -19.64Q362.54 -13.36 357.97 -8.68Q353.4 -4 347.5 -1.39Q341.61 1.21 334.61 1.21Q327.61 1.21 322.32 -2.25Q317.04 -5.71 314.61 -12.32Q312.18 -18.93 313.54 -28.21Q314.61 -36.07 317.72 -42.57Q320.82 -49.07 325.54 -53.82Q330.25 -58.57 336.22 -61.07Q342.18 -63.57 349.04 -63.36ZM335.18 -2Q337.97 -2 340.79 -4.21Q343.61 -6.43 346.25 -10.21Q348.9 -14 351.11 -18.86Q353.32 -23.71 354.9 -29.04Q356.47 -34.36 357.11 -39.57Q358.32 -46.71 357.43 -51.21Q356.54 -55.71 354.25 -57.89Q351.97 -60.07 348.82 -60.21Q345.97 -60.29 343 -58.18Q340.04 -56.07 337.25 -52.25Q334.47 -48.43 332.15 -43.5Q329.82 -38.57 328.18 -33.07Q326.54 -27.57 325.82 -22.07Q324.61 -14.64 325.65 -10.21Q326.68 -5.79 329.22 -3.89Q331.75 -2 335.18 -2ZM379.04 -49.64Q378.47 -49.71 378.43 -50.32Q378.4 -50.93 378.9 -51.79Q381.25 -55.36 384.11 -57.93Q386.97 -60.5 390.11 -61.86Q393.25 -63.21 396.4 -63.21Q399.68 -63.21 401.4 -61.61Q403.11 -60 403.11 -56.93Q403.11 -54.71 402.43 -52.04Q401.75 -49.36 400.5 -45.75Q399.25 -42.14 397.5 -37.11Q395.75 -32.07 393.54 -25.07L392.61 -25.29Q395.32 -33.93 398.75 -40.93Q402.18 -47.93 406.04 -52.89Q409.9 -57.86 413.97 -60.54Q418.04 -63.21 421.97 -63.21Q425.97 -63.21 427.9 -60.57Q429.82 -57.93 429.54 -53.71Q429.32 -50.86 428.18 -48.71Q427.04 -46.57 425.29 -45.43Q423.54 -44.29 421.47 -44.29Q419.25 -44.29 418.07 -45.32Q416.9 -46.36 416.9 -48.21Q416.9 -49.64 417.25 -50.89Q417.61 -52.14 417.61 -53.5Q417.61 -54.86 417.07 -55.54Q416.54 -56.21 415.4 -56.21Q412.54 -56.21 408.79 -52.5Q405.04 -48.79 401.07 -41.39Q397.11 -34 393.68 -22.86Q392.25 -18.14 391.5 -15.18Q390.75 -12.21 390.75 -10Q390.75 -8.5 391.32 -7.61Q391.9 -6.71 392.43 -6.07Q392.97 -5.43 392.97 -4.57Q392.97 -3.29 391.32 -1.93Q389.68 -0.57 386.9 0.32Q384.11 1.21 380.75 1.21Q378.18 1.21 377.04 0.11Q375.9 -1 376.04 -3.18Q376.18 -5.36 377.25 -8.71L389.04 -45.07Q391.11 -51.36 390.82 -53.64Q390.54 -55.93 388.4 -55.93Q387.04 -55.93 385.18 -54.75Q383.32 -53.57 380.4 -50.21Q379.97 -49.86 379.65 -49.71Q379.32 -49.57 379.04 -49.64ZM461.47 -60.43Q457.18 -60.43 452.65 -56.57Q448.11 -52.71 444.68 -45.79Q441.25 -38.86 440.11 -29.57Q438.54 -17.64 441.86 -11.79Q445.18 -5.93 452.25 -5.93Q455.68 -5.93 459.04 -7.46Q462.4 -9 465.4 -12.29Q468.4 -15.57 470.54 -20.71Q470.97 -21.5 471.4 -21.86Q471.82 -22.21 472.25 -22.21Q472.9 -22.14 473.18 -21.5Q473.47 -20.86 472.9 -19.5Q471.18 -14.64 468.47 -10.75Q465.75 -6.86 462.18 -4.18Q458.61 -1.5 454.32 -0.07Q450.04 1.36 445.25 1.36Q434.9 1.36 429.97 -5.79Q425.04 -12.93 426.68 -26.36Q427.61 -33.86 430.72 -40.61Q433.82 -47.36 438.61 -52.54Q443.4 -57.71 449.32 -60.68Q455.25 -63.64 461.82 -63.64Q467.4 -63.64 471.11 -61.79Q474.82 -59.93 476.68 -56.82Q478.54 -53.71 478.32 -49.86Q478.18 -46.07 476.32 -44.14Q474.47 -42.21 471.97 -42.21Q469.9 -42.21 468.57 -43.5Q467.25 -44.79 467.32 -46.93Q467.4 -48.93 467.9 -50.54Q468.4 -52.14 468.4 -54.36Q468.4 -57.07 466.57 -58.75Q464.75 -60.43 461.47 -60.43ZM487.47 -30.29Q487.47 -30.29 490.15 -31.25Q492.82 -32.21 497 -33.79Q501.18 -35.36 505.82 -37.11Q510.47 -38.86 514.57 -40.36Q518.68 -41.86 521.11 -42.79L519.75 -40.93Q520.4 -42.5 520.75 -44.64Q521.11 -46.79 521.11 -49.93Q521.11 -54.57 519.43 -57.54Q517.75 -60.5 514.68 -60.5Q511.4 -60.5 508.18 -58.14Q504.97 -55.79 502.11 -51.39Q499.25 -47 497.15 -40.89Q495.04 -34.79 494.04 -27.29Q492.68 -16.93 496.11 -11.39Q499.54 -5.86 506.61 -5.86Q510.47 -5.86 514.04 -7.46Q517.61 -9.07 520.72 -12.43Q523.82 -15.79 526.25 -21Q526.82 -21.86 527.29 -22.18Q527.75 -22.5 528.25 -22.43Q528.75 -22.29 528.93 -21.79Q529.11 -21.29 528.82 -20.36Q526.61 -14 522.54 -9.11Q518.47 -4.21 512.68 -1.5Q506.9 1.21 499.54 1.21Q492.82 1.21 488.25 -1.86Q483.68 -4.93 481.72 -10.82Q479.75 -16.71 480.68 -25.14Q481.61 -33.07 484.75 -40.04Q487.9 -47 492.65 -52.25Q497.4 -57.5 503.29 -60.5Q509.18 -63.5 515.61 -63.5Q520.75 -63.5 524.18 -61.39Q527.61 -59.29 529.32 -55.79Q531.04 -52.29 531.11 -48.07Q531.18 -47.14 531.61 -46.71Q532.04 -46.29 532.97 -46.36Q533.54 -46.36 533.86 -46.11Q534.18 -45.86 534.25 -45.5Q534.4 -44.93 534 -44.5Q533.61 -44.07 532.61 -43.71Q531.04 -43.14 527.11 -41.75Q523.18 -40.36 518.15 -38.54Q513.11 -36.71 507.79 -34.86Q502.47 -33 497.93 -31.39Q493.4 -29.79 490.57 -28.79Q487.75 -27.79 487.75 -27.79ZM540.61 -0.07Q537.75 -0.21 536.43 -1.89Q535.11 -3.57 535.4 -6.21Q535.61 -8.5 537 -10.5Q538.4 -12.5 540.68 -13.75Q542.97 -15 545.75 -15Q549.32 -15 551.04 -12.43Q552.75 -9.86 552.04 -4.64Q551.11 2.36 547.82 8.07Q544.54 13.79 539.86 17.79Q535.18 21.79 529.9 23.5Q529.04 23.71 528.54 23.61Q528.04 23.5 527.82 23.07Q527.68 22.57 528.04 22.04Q528.4 21.5 529.25 21.14Q533.97 19.36 537.54 16.29Q541.11 13.21 543.32 9.57Q545.54 5.93 546.18 2.64Q546.25 1.36 545.75 0.75Q545.25 0.14 543.68 0.07ZM620.25 -8 631.82 -43.43Q634.04 -50.29 633.15 -52.93Q632.25 -55.57 629.32 -55.57Q626.25 -55.57 621.61 -52.21Q616.97 -48.86 612.15 -41.68Q607.32 -34.5 603.47 -23.14Q602.04 -18.86 601.25 -16.11Q600.47 -13.36 600.22 -11.64Q599.97 -9.93 599.97 -8.86Q599.97 -7.5 600.43 -6.46Q600.9 -5.43 600.9 -4Q600.9 -1.64 598.07 -0.21Q595.25 1.21 590.25 1.21Q586.25 1.21 585.68 -1.04Q585.11 -3.29 586.97 -8.57L599.47 -45.79Q601.47 -51.43 601.11 -53.68Q600.75 -55.93 598.68 -55.93Q597.18 -55.93 595.29 -54.71Q593.4 -53.5 590.47 -50.21Q590.11 -49.86 589.79 -49.71Q589.47 -49.57 589.11 -49.64Q588.61 -49.79 588.54 -50.39Q588.47 -51 588.97 -51.79Q592.47 -57.14 597.22 -60.18Q601.97 -63.21 606.68 -63.21Q610.04 -63.21 611.82 -61.68Q613.61 -60.14 613.61 -56.93Q613.61 -54.57 612.79 -51.68Q611.97 -48.79 610.72 -45.5Q609.47 -42.21 608.11 -38.57Q606.75 -34.93 605.68 -31.07L604.68 -31.29Q609.82 -43.14 615.79 -50.14Q621.75 -57.14 627.72 -60.18Q633.68 -63.21 638.61 -63.21Q642.54 -63.21 644.5 -61.39Q646.47 -59.57 646.47 -56Q646.47 -54.07 645.82 -51.61Q645.18 -49.14 644.07 -46.07Q642.97 -43 641.57 -39.25Q640.18 -35.5 638.68 -31.07L637.97 -31.43Q641.82 -40 646.11 -46.07Q650.4 -52.14 654.86 -55.93Q659.32 -59.71 663.65 -61.46Q667.97 -63.21 671.9 -63.21Q676.04 -63.21 677.97 -61.07Q679.9 -58.93 679.82 -54.89Q679.75 -50.86 677.97 -45.14L668.82 -15.86Q666.97 -9.79 667.4 -7.71Q667.82 -5.64 669.75 -5.64Q671.25 -5.64 673.04 -6.79Q674.82 -7.93 677.47 -11.07Q677.97 -11.57 678.25 -11.75Q678.54 -11.93 678.75 -11.79Q679.25 -11.71 679.32 -11.04Q679.4 -10.36 678.82 -9.29Q675.9 -4.5 671.65 -1.64Q667.4 1.21 661.9 1.21Q658.25 1.21 656.43 -0.39Q654.61 -2 654.47 -5.07Q654.32 -8.14 655.68 -12.64L665.25 -43.43Q667.32 -50.36 666.5 -52.96Q665.68 -55.57 662.75 -55.57Q659.68 -55.57 655.04 -52.21Q650.4 -48.86 645.57 -41.71Q640.75 -34.57 636.9 -23.07Q635.47 -18.93 634.72 -16.11Q633.97 -13.29 633.68 -11.5Q633.4 -9.71 633.4 -8.64Q633.4 -7.21 633.9 -6.21Q634.4 -5.21 634.4 -3.86Q634.4 -1.57 631.5 -0.11Q628.61 1.36 623.75 1.36Q621.11 1.36 620 0.39Q618.9 -0.57 619.04 -2.64Q619.18 -4.71 620.25 -8ZM735.18 -16.86Q733.4 -10.07 733.75 -7.82Q734.11 -5.57 736.04 -5.57Q737.54 -5.57 739.25 -6.75Q740.97 -7.93 743.54 -11.07Q744.04 -11.64 744.32 -11.79Q744.61 -11.93 744.9 -11.86Q745.47 -11.71 745.5 -11.11Q745.54 -10.5 745.04 -9.36Q742.18 -4.36 738 -1.57Q733.82 1.21 728.82 1.21Q725.18 1.21 723.4 -0.61Q721.61 -2.43 721.61 -5.86Q721.61 -7.21 721.93 -9.36Q722.25 -11.5 722.93 -14.57Q723.61 -17.64 724.75 -21.75Q725.9 -25.86 727.47 -31.29L728.25 -30.14Q724.25 -20.36 719.75 -13.32Q715.25 -6.29 710.11 -2.54Q704.97 1.21 699.04 1.21Q692.32 1.21 688.93 -4.11Q685.54 -9.43 687.04 -20.36Q687.82 -26.93 690.54 -33.21Q693.25 -39.5 697.5 -44.93Q701.75 -50.36 707.25 -54.46Q712.75 -58.57 719.22 -60.93Q725.68 -63.29 732.75 -63.29Q737.54 -63.29 740.97 -62.57Q744.4 -61.86 746.25 -60.75Q748.11 -59.64 748.11 -58.5Q748.04 -57.57 747.4 -57Q746.75 -56.43 746.07 -55.86Q745.4 -55.29 745.04 -54.14ZM699.68 -19.36Q698.4 -11.64 700.18 -8Q701.97 -4.36 705.04 -4.36Q707.82 -4.36 710.82 -6.71Q713.82 -9.07 716.86 -13.46Q719.9 -17.86 722.79 -23.96Q725.68 -30.07 728.29 -37.64Q730.9 -45.21 733.04 -53.93Q733.75 -56.86 733.22 -58.43Q732.68 -60 730.04 -60Q725.97 -60 721.97 -57.75Q717.97 -55.5 714.32 -51.57Q710.68 -47.64 707.72 -42.46Q704.75 -37.29 702.65 -31.39Q700.54 -25.5 699.68 -19.36ZM783.75 -71.71 756.4 25.57Q755.75 27.79 756.11 28.96Q756.47 30.14 758.54 30.43L763.68 31.14Q764.54 31.29 764.9 31.61Q765.25 31.93 765.25 32.43Q765.25 33.14 764.75 33.54Q764.25 33.93 763.32 33.93L736.68 34.43Q735.75 34.43 735.29 34.11Q734.82 33.79 734.82 33.14Q734.82 32.64 735.22 32.25Q735.61 31.86 736.61 31.57Q739.04 31.07 740.43 30.5Q741.82 29.93 742.54 28.96Q743.25 28 743.68 26.43L770.9 -67.71Q771.18 -68.64 772.18 -69.68Q773.18 -70.71 774.65 -71.71Q776.11 -72.71 777.61 -73.54Q779.11 -74.36 780.4 -74.82Q781.68 -75.29 782.32 -75.29Q783.54 -75.29 783.86 -74.39Q784.18 -73.5 783.75 -71.71ZM757.61 -46.79Q757.04 -46.14 756.43 -46Q755.82 -45.86 755.32 -46.21Q754.82 -46.64 754.97 -47.46Q755.11 -48.29 755.75 -49Q759.68 -53.93 764.57 -57.29Q769.47 -60.64 775.4 -62.32Q781.32 -64 788.32 -63.79Q796.18 -63.5 801.36 -59.79Q806.54 -56.07 808.82 -49.46Q811.11 -42.86 810.11 -33.79Q808.97 -23.29 804.04 -15.36Q799.11 -7.43 791.79 -3.07Q784.47 1.29 776.18 1.14Q770.11 1 766.15 -1.43Q762.18 -3.86 760.32 -8.36L762.68 -9.43Q764.32 -6.14 767.04 -4.43Q769.75 -2.71 773.47 -2.64Q778.75 -2.5 783.61 -6.21Q788.47 -9.93 792.04 -17.04Q795.61 -24.14 796.97 -34.21Q798.25 -43.07 797.15 -48.82Q796.04 -54.57 793.15 -57.43Q790.25 -60.29 786.04 -60.5Q778.25 -60.86 770.97 -57.5Q763.68 -54.14 757.61 -46.79ZM847.54 -71.71 820.18 25.57Q819.54 27.79 819.9 28.96Q820.25 30.14 822.32 30.43L827.47 31.14Q828.32 31.29 828.68 31.61Q829.04 31.93 829.04 32.43Q829.04 33.14 828.54 33.54Q828.04 33.93 827.11 33.93L800.47 34.43Q799.54 34.43 799.07 34.11Q798.61 33.79 798.61 33.14Q798.61 32.64 799 32.25Q799.4 31.86 800.4 31.57Q802.82 31.07 804.22 30.5Q805.61 29.93 806.32 28.96Q807.04 28 807.47 26.43L834.68 -67.71Q834.97 -68.64 835.97 -69.68Q836.97 -70.71 838.43 -71.71Q839.9 -72.71 841.4 -73.54Q842.9 -74.36 844.18 -74.82Q845.47 -75.29 846.11 -75.29Q847.32 -75.29 847.65 -74.39Q847.97 -73.5 847.54 -71.71ZM821.4 -46.79Q820.82 -46.14 820.22 -46Q819.61 -45.86 819.11 -46.21Q818.61 -46.64 818.75 -47.46Q818.9 -48.29 819.54 -49Q823.47 -53.93 828.36 -57.29Q833.25 -60.64 839.18 -62.32Q845.11 -64 852.11 -63.79Q859.97 -63.5 865.15 -59.79Q870.32 -56.07 872.61 -49.46Q874.9 -42.86 873.9 -33.79Q872.75 -23.29 867.82 -15.36Q862.9 -7.43 855.57 -3.07Q848.25 1.29 839.97 1.14Q833.9 1 829.93 -1.43Q825.97 -3.86 824.11 -8.36L826.47 -9.43Q828.11 -6.14 830.82 -4.43Q833.54 -2.71 837.25 -2.64Q842.54 -2.5 847.4 -6.21Q852.25 -9.93 855.82 -17.04Q859.4 -24.14 860.75 -34.21Q862.04 -43.07 860.93 -48.82Q859.82 -54.57 856.93 -57.43Q854.04 -60.29 849.82 -60.5Q842.04 -60.86 834.75 -57.5Q827.47 -54.14 821.4 -46.79ZM886.9 -30.29Q886.9 -30.29 889.57 -31.25Q892.25 -32.21 896.43 -33.79Q900.61 -35.36 905.25 -37.11Q909.9 -38.86 914 -40.36Q918.11 -41.86 920.54 -42.79L919.18 -40.93Q919.82 -42.5 920.18 -44.64Q920.54 -46.79 920.54 -49.93Q920.54 -54.57 918.86 -57.54Q917.18 -60.5 914.11 -60.5Q910.82 -60.5 907.61 -58.14Q904.4 -55.79 901.54 -51.39Q898.68 -47 896.57 -40.89Q894.47 -34.79 893.47 -27.29Q892.11 -16.93 895.54 -11.39Q898.97 -5.86 906.04 -5.86Q909.9 -5.86 913.47 -7.46Q917.04 -9.07 920.15 -12.43Q923.25 -15.79 925.68 -21Q926.25 -21.86 926.72 -22.18Q927.18 -22.5 927.68 -22.43Q928.18 -22.29 928.36 -21.79Q928.54 -21.29 928.25 -20.36Q926.04 -14 921.97 -9.11Q917.9 -4.21 912.11 -1.5Q906.32 1.21 898.97 1.21Q892.25 1.21 887.68 -1.86Q883.11 -4.93 881.15 -10.82Q879.18 -16.71 880.11 -25.14Q881.04 -33.07 884.18 -40.04Q887.32 -47 892.07 -52.25Q896.82 -57.5 902.72 -60.5Q908.61 -63.5 915.04 -63.5Q920.18 -63.5 923.61 -61.39Q927.04 -59.29 928.75 -55.79Q930.47 -52.29 930.54 -48.07Q930.61 -47.14 931.04 -46.71Q931.47 -46.29 932.4 -46.36Q932.97 -46.36 933.29 -46.11Q933.61 -45.86 933.68 -45.5Q933.82 -44.93 933.43 -44.5Q933.04 -44.07 932.04 -43.71Q930.47 -43.14 926.54 -41.75Q922.61 -40.36 917.57 -38.54Q912.54 -36.71 907.22 -34.86Q901.9 -33 897.36 -31.39Q892.82 -29.79 890 -28.79Q887.18 -27.79 887.18 -27.79ZM988.25 -54.36 982.9 -53.71Q982.97 -56.43 981.65 -58.29Q980.32 -60.14 976.54 -60.14Q972.75 -60.14 968.9 -57.79Q965.04 -55.43 961.47 -51.32Q957.9 -47.21 954.97 -41.96Q952.04 -36.71 950.04 -30.93Q948.04 -25.14 947.32 -19.36Q946.18 -11.57 947.9 -8.04Q949.61 -4.5 952.82 -4.5Q955.4 -4.5 958.86 -7.14Q962.32 -9.79 966.04 -14.64Q969.75 -19.5 973.11 -26.14Q976.47 -32.79 978.75 -40.64L992.04 -87.14Q994.47 -95.64 999.4 -99.71Q1004.32 -103.79 1012.32 -103.79Q1016.61 -103.79 1018.75 -102.14Q1020.9 -100.5 1020.9 -98.21Q1020.9 -96.07 1019.54 -94.71Q1018.18 -93.36 1015.68 -93.36Q1014.04 -93.36 1012.54 -93.96Q1011.04 -94.57 1009.54 -95.39Q1008.04 -96.21 1006.65 -96.86Q1005.25 -97.5 1003.82 -97.5Q1001.68 -97.5 999.86 -95.64Q998.04 -93.79 997.75 -90.79Q997.61 -89.36 998.07 -88Q998.54 -86.64 999.22 -85.25Q999.9 -83.86 1000.47 -82.14Q1001.04 -80.43 1001.11 -78.21Q1001.18 -76 1000.4 -73.07L984.11 -16.43Q982.32 -10.36 982.57 -8Q982.82 -5.64 985.04 -5.64Q986.54 -5.64 988.29 -6.79Q990.04 -7.93 992.54 -11.14Q992.97 -11.64 993.25 -11.82Q993.54 -12 993.82 -11.86Q994.32 -11.79 994.4 -11.18Q994.47 -10.57 993.97 -9.5Q992.04 -6.14 989.5 -3.75Q986.97 -1.36 983.97 -0.07Q980.97 1.21 977.68 1.21Q973.75 1.21 971.82 -0.64Q969.9 -2.5 969.9 -6Q969.9 -7.86 970.36 -10.57Q970.82 -13.29 972.11 -17.89Q973.4 -22.5 975.61 -29.86L977.04 -29.29Q972.61 -19.14 967.43 -12.36Q962.25 -5.57 956.9 -2.18Q951.54 1.21 946.32 1.21Q942.32 1.21 939.32 -0.96Q936.32 -3.14 935 -7.68Q933.68 -12.21 934.47 -19.29Q935.32 -27.21 939.07 -35Q942.82 -42.79 948.65 -49.18Q954.47 -55.57 961.61 -59.43Q968.75 -63.29 976.4 -63.29Q980.75 -63.29 983.36 -62.11Q985.97 -60.93 987.11 -58.89Q988.25 -56.86 988.25 -54.36ZM1006.11 1.21Q1002.82 1.21 1001.11 -0.75Q999.4 -2.71 999.68 -5.64Q999.9 -8.14 1001.32 -10.21Q1002.75 -12.29 1005.04 -13.5Q1007.32 -14.71 1010.11 -14.71Q1013.61 -14.71 1015.29 -12.71Q1016.97 -10.71 1016.68 -7.79Q1016.47 -5.43 1015.11 -3.36Q1013.75 -1.29 1011.47 -0.04Q1009.18 1.21 1006.11 1.21Z" fill="#7A5D18"/></svg>
